<svg xmlns="http://www.w3.org/2000/svg" viewBox="0 0 760 342" width="760" height="342" font-family="ui-monospace,SFMono-Regular,Menlo,monospace"><rect width="760" height="342" fill="#FAFBFD"/><text x="200" y="16" fill="#68717F" font-size="10" text-anchor="start" font-weight="400">baseline</text><rect x="184" y="9.0" width="9.0" height="9" rx="2" fill="#2F68A8"/><text x="274" y="16" fill="#68717F" font-size="10" text-anchor="start" font-weight="400">adapter</text><rect x="258" y="9.0" width="9.0" height="9" rx="2" fill="#0D7D5C"/><text x="188" y="46" fill="#68717F" font-size="10" text-anchor="end" font-weight="400">weaken_types</text><text x="188" y="60" fill="#6E7785" font-size="9" text-anchor="end" font-weight="400">n=47</text><rect x="200" y="32.0" width="148.1" height="14" rx="2" fill="#2F68A8"/><rect x="200" y="50.0" width="315.9" height="14" rx="2" fill="#0D7D5C"/><text x="354.0851063829787" y="43" fill="#6E7785" font-size="9" text-anchor="start" font-weight="400">15</text><text x="521.9148936170213" y="61" fill="#6E7785" font-size="9" text-anchor="start" font-weight="400">32</text><text x="746" y="53" fill="#0D7D5C" font-size="11" text-anchor="end" font-weight="600">+17</text><text x="188" y="96" fill="#68717F" font-size="10" text-anchor="end" font-weight="400">deprecate</text><text x="188" y="110" fill="#6E7785" font-size="9" text-anchor="end" font-weight="400">n=18</text><rect x="200" y="82.0" width="49.4" height="14" rx="2" fill="#2F68A8"/><rect x="200" y="100.0" width="108.6" height="14" rx="2" fill="#0D7D5C"/><text x="255.36170212765958" y="93" fill="#6E7785" font-size="9" text-anchor="start" font-weight="400">5</text><text x="314.59574468085106" y="111" fill="#6E7785" font-size="9" text-anchor="start" font-weight="400">11</text><text x="746" y="103" fill="#0D7D5C" font-size="11" text-anchor="end" font-weight="600">+6</text><text x="188" y="146" fill="#68717F" font-size="10" text-anchor="end" font-weight="400">teacher:blender</text><text x="188" y="160" fill="#6E7785" font-size="9" text-anchor="end" font-weight="400">n=17</text><rect x="200" y="132.0" width="19.7" height="14" rx="2" fill="#2F68A8"/><rect x="200" y="150.0" width="9.9" height="14" rx="2" fill="#0D7D5C"/><text x="225.74468085106383" y="143" fill="#6E7785" font-size="9" text-anchor="start" font-weight="400">2</text><text x="215.87234042553192" y="161" fill="#6E7785" font-size="9" text-anchor="start" font-weight="400">1</text><text x="746" y="153" fill="#B0452C" font-size="11" text-anchor="end" font-weight="600">-1</text><text x="188" y="196" fill="#68717F" font-size="10" text-anchor="end" font-weight="400">implement_from_signature</text><text x="188" y="210" fill="#6E7785" font-size="9" text-anchor="end" font-weight="400">n=9</text><rect x="200" y="182.0" width="29.6" height="14" rx="2" fill="#2F68A8"/><rect x="200" y="200.0" width="29.6" height="14" rx="2" fill="#0D7D5C"/><text x="235.61702127659575" y="193" fill="#6E7785" font-size="9" text-anchor="start" font-weight="400">3</text><text x="235.61702127659575" y="211" fill="#6E7785" font-size="9" text-anchor="start" font-weight="400">3</text><text x="746" y="203" fill="#6E7785" font-size="11" text-anchor="end" font-weight="600">0</text><text x="188" y="246" fill="#68717F" font-size="10" text-anchor="end" font-weight="400">hallucinate</text><text x="188" y="260" fill="#6E7785" font-size="9" text-anchor="end" font-weight="400">n=7</text><rect x="200" y="232.0" width="19.7" height="14" rx="2" fill="#2F68A8"/><rect x="200" y="250.0" width="9.9" height="14" rx="2" fill="#0D7D5C"/><text x="225.74468085106383" y="243" fill="#6E7785" font-size="9" text-anchor="start" font-weight="400">2</text><text x="215.87234042553192" y="261" fill="#6E7785" font-size="9" text-anchor="start" font-weight="400">1</text><text x="746" y="253" fill="#B0452C" font-size="11" text-anchor="end" font-weight="600">-1</text><text x="188" y="296" fill="#68717F" font-size="10" text-anchor="end" font-weight="400">teacher:roblox</text><text x="188" y="310" fill="#6E7785" font-size="9" text-anchor="end" font-weight="400">n=2</text><rect x="200" y="282.0" width="0.5" height="14" rx="2" fill="#2F68A8"/><rect x="200" y="300.0" width="0.5" height="14" rx="2" fill="#0D7D5C"/><text x="206.0" y="293" fill="#6E7785" font-size="9" text-anchor="start" font-weight="400">0</text><text x="206.0" y="311" fill="#6E7785" font-size="9" text-anchor="start" font-weight="400">0</text><text x="746" y="303" fill="#6E7785" font-size="11" text-anchor="end" font-weight="600">0</text></svg>